<?xml version="1.0" encoding="utf-8"?>
<!-- Generator: Adobe Illustrator 16.0.0, SVG Export Plug-In . SVG Version: 6.00 Build 0)  -->
<!DOCTYPE svg PUBLIC "-//W3C//DTD SVG 1.1//EN" "http://www.w3.org/Graphics/SVG/1.1/DTD/svg11.dtd">
<svg version="1.1" id="Layer_1" xmlns="http://www.w3.org/2000/svg" xmlns:xlink="http://www.w3.org/1999/xlink" x="0px" y="0px"
	 width="2206.51px" height="1963.167px" viewBox="148.851 141.737 2206.51 1963.167"
	 enable-background="new 148.851 141.737 2206.51 1963.167" xml:space="preserve">
<g>
	<g>
		<g>
			<path d="M1371.713,890.173c-37.142-42.167-90.587-66.315-146.606-66.315c-56.019,0-109.464,24.148-146.605,66.438
				c-31.258,35.303-48.419,81.271-48.296,129.077c0.123,47.806,17.406,93.65,48.787,128.953
				c5.148,5.761,10.664,11.277,16.426,16.426c20.471,18.265,29.174,35.794,29.174,58.838l-0.246,22.923
				c-0.121,12.136,9.685,22.187,21.819,22.311c0.122,0,0.122,0,0.246,0c12.135,0,21.94-9.684,22.063-21.819l0.245-22.923v-0.123
				c0.122-36.039-13.852-65.212-43.884-92.058c-4.412-3.922-8.703-8.335-12.748-12.748c-50.502-56.877-50.625-142.684-0.367-199.683
				c28.807-32.729,70.238-51.483,113.508-51.483c43.395,0,84.703,18.755,113.51,51.483c50.135,56.878,50.013,142.56-0.123,199.315
				c-4.044,4.656-8.458,8.948-12.993,13.115c-29.542,26.354-43.394,55.283-43.515,90.832l-0.247,24.025
				c-0.122,12.135,9.684,22.188,21.821,22.31c0.122,0,0.122,0,0.244,0c12.136,0,21.941-9.684,22.063-21.819l0.246-24.025
				c-0.123-0.367-0.123-0.367,0-0.49c0.123-23.045,8.458-39.96,28.806-58.104c5.885-5.27,11.401-10.909,16.672-16.793
				c31.135-35.303,48.296-81.025,48.296-128.83C1420.009,971.323,1402.847,925.477,1371.713,890.173z"/>
		</g>
	</g>
	<g>
		<g>
			<path d="M1303.803,1305.718h-157.393c-12.136,0-22.065,9.93-22.065,22.065s9.93,22.064,22.065,22.064h157.515
				c12.136,0,21.941-9.807,21.941-22.064C1325.867,1315.648,1315.939,1305.718,1303.803,1305.718z"/>
		</g>
	</g>
	<g>
		<g>
			<path d="M1267.519,1378.655h-84.948c-12.135,0-22.063,9.929-22.063,22.063c0,12.136,9.929,22.065,22.063,22.065h84.948
				c12.136,0,22.064-9.93,22.064-22.065C1289.584,1388.583,1279.655,1378.655,1267.519,1378.655z"/>
		</g>
	</g>
	<g>
		<g>
			<path d="M1240.674,1082.624l-60.922-60.923c-8.581-8.58-22.555-8.58-31.258,0c-8.58,8.58-8.58,22.555,0,31.258l54.549,54.426
				c0,32.361,0,139.373,0,139.373c0,12.135,9.929,22.065,22.063,22.065c12.136,0,22.063-9.931,22.063-22.065v-146.851
				C1247.17,1091.817,1244.351,1086.301,1240.674,1082.624z"/>
		</g>
	</g>
	<g>
		<g>
			<path d="M1301.719,1021.579c-8.582-8.581-22.555-8.581-31.259,0l-11.646,11.644c-8.58,8.582-8.58,22.557,0,31.26
				c4.291,4.29,9.929,6.496,15.568,6.496c5.638,0,11.277-2.084,15.69-6.496l11.646-11.646
				C1310.3,1044.256,1310.3,1030.281,1301.719,1021.579z"/>
		</g>
	</g>
	<g>
	</g>
	<g>
	</g>
	<g>
	</g>
	<g>
	</g>
	<g>
	</g>
	<g>
	</g>
	<g>
	</g>
	<g>
	</g>
	<g>
	</g>
	<g>
	</g>
	<g>
	</g>
	<g>
	</g>
	<g>
	</g>
	<g>
	</g>
	<g>
	</g>
</g>
<g>
	<g>
	</g>
	<g>
	</g>
	<g>
	</g>
	<g>
	</g>
	<g>
	</g>
	<g>
	</g>
	<g>
	</g>
	<g>
	</g>
	<g>
	</g>
	<g>
	</g>
	<g>
	</g>
	<g>
	</g>
	<g>
	</g>
	<g>
	</g>
	<g>
	</g>
</g>
<g>
	<g>
		<path d="M1963.052,778.034L1963.052,778.034c-23.485-8.057-47.17-15.52-71.031-22.383c3.957-16.079,7.616-32.23,10.976-48.445
			c53.768-261.005,18.612-471.269-101.441-540.484c-115.103-66.385-303.356,2.832-493.485,168.284
			c-18.734,16.34-37.053,33.151-54.938,50.417c-11.978-11.48-24.167-22.738-36.562-33.768
			c-199.259-176.927-398.987-251.474-518.914-182.053C582.661,236.172,548.6,433.849,597.007,681.201
			c4.815,24.496,10.254,48.864,16.308,73.083c-28.261,8.027-55.555,16.582-81.666,25.683
			c-233.604,81.442-382.797,209.093-382.797,341.49c0,136.752,160.149,273.914,403.479,357.075
			c19.73,6.712,39.625,12.931,59.665,18.651c-6.511,26.092-12.29,52.36-17.333,78.775
			c-46.15,243.057-10.107,436.047,104.585,502.206c118.462,68.308,317.282-1.904,510.887-171.136
			c15.303-13.378,30.663-27.566,46.043-42.439c19.373,18.691,39.263,36.839,59.646,54.422
			c187.531,161.37,372.738,226.533,487.333,160.198c118.354-68.513,156.81-275.838,106.871-528.083
			c-3.809-19.268-8.252-38.944-13.232-58.982c13.965-4.121,27.665-8.379,41.034-12.812
			c252.958-83.806,417.531-219.298,417.531-357.876C2355.361,988.582,2201.363,860.072,1963.052,778.034z M1341.953,407.386
			c162.903-141.771,315.152-197.745,384.524-157.737h0.001c73.883,42.615,102.622,214.454,56.198,439.806
			c-3.043,14.68-6.351,29.305-9.921,43.865c-91.539-21.123-190.949-36.844-295.027-46.609
			c-60.632-86.334-123.452-164.838-186.516-232.784C1307.738,437.996,1324.656,422.477,1341.953,407.386z M772.357,1235.828
			c19.954,38.543,40.813,76.613,62.557,114.176c22.188,38.316,45.285,76.1,69.274,113.314
			c-72.263-8.066-140.414-18.992-203.351-32.693C720.319,1367.717,744.322,1302.33,772.357,1235.828z M772.25,1014.139
			c-27.449-65.105-50.935-129.115-70.114-190.93c62.957-14.092,130.093-25.605,200.041-34.344
			c-23.415,36.521-45.969,73.586-67.644,111.166C812.887,937.578,792.121,975.623,772.25,1014.139z M822.355,1124.994
			c29.043-60.451,60.35-119.787,93.854-177.885v0.02c33.493-58.107,69.182-114.924,106.988-170.324
			c65.622-4.961,132.904-7.559,200.919-7.559c68.317,0,135.688,2.617,201.29,7.617c37.424,55.314,72.885,111.934,106.314,169.748
			c33.619,57.969,65.344,117.014,95.123,177.045c-29.474,60.641-61.097,120.215-94.811,178.605h-0.01
			c-33.425,58.063-68.729,115.025-105.855,170.793c-65.466,4.678-133.119,7.09-202.062,7.09c-68.659,0-135.453-2.139-199.776-6.309
			c-38.09-55.639-74.062-112.699-107.838-171.057C882.874,1244.731,851.472,1185.426,822.355,1124.994z M1613.679,1349.35
			c22.195-38.49,43.531-77.471,63.992-116.91c29.49,67.225,54.353,132.262,74.098,194.104
			c-63.981,14.6-133.051,26.357-205.831,35.086C1569.261,1424.656,1591.846,1387.221,1613.679,1349.35z M1676.773,1014.207
			c-20.392-38.691-41.554-76.973-63.474-114.82c-21.571-37.26-43.941-74.051-67.097-110.346
			c70.406,8.887,137.855,20.701,201.192,35.164C1728.383,885.151,1704.682,948.877,1676.773,1014.207z M1225.161,521.336
			c43.475,47.098,87.018,99.693,129.849,156.752c-86.882-4.105-173.907-4.125-260.79-0.059
			C1137.089,621.498,1181.003,568.981,1225.161,521.336z M716.882,252.452c73.825-42.732,237.051,18.202,409.094,170.959
			c10.996,9.766,22.04,19.99,33.104,30.565c-64.099,68.834-127.446,147.202-187.961,232.608
			c-103.775,9.619-203.116,25.066-294.441,45.76c-5.625-22.531-10.682-45.199-15.165-67.986v0.01
			C620.04,452.433,647.578,292.567,716.882,252.452z M609.288,1407.658c-18.293-5.236-36.456-10.922-54.47-17.051
			c-107.594-36.775-196.447-84.566-257.353-136.713c-54.725-46.873-82.36-93.404-82.36-131.166
			c0-80.34,119.79-182.826,319.577-252.48c25.075-8.705,50.401-16.674,75.943-23.896c27.616,89.813,63.836,183.715,107.545,278.672
			C673.895,1221.397,637.158,1316.791,609.288,1407.658z M1120.107,1837.317c-85.612,74.842-171.399,127.926-247.002,154.633h-0.01
			c-67.937,23.994-122.046,24.676-154.749,5.82c-69.606-40.135-98.531-195.109-59.07-402.963
			c4.692-24.563,10.065-48.992,16.112-73.258c90.378,19.99,190.422,34.373,297.352,43.045
			c61.042,85.904,124.976,164.867,189.406,234.014C1148.453,1811.854,1134.435,1824.762,1120.107,1837.317z M1227.768,1730.78
			c-44.676-48.211-89.234-101.529-132.758-158.881c42.244,1.66,85.318,2.5,129.096,2.5c44.979,0,89.439-1.006,133.197-2.959
			C1314.337,1629.836,1270.95,1683.233,1227.768,1730.78z M1800.166,1861.926c-13.144,70.836-39.568,118.061-72.242,136.977
			c-69.538,40.252-218.253-12.07-378.617-150.072c-18.388-15.818-36.913-32.713-55.486-50.584
			c62.176-68.004,124.312-147.064,184.953-234.854c106.676-9.463,207.452-24.939,298.845-46.063
			c4.492,18.164,8.496,35.965,11.943,53.377C1811.64,1682.246,1814.795,1783.092,1800.166,1861.926z M1880.192,1391.135h-0.01
			c-12.06,3.994-24.442,7.852-37.059,11.592c-27.929-88.404-65.622-182.416-111.734-279.529
			c44.013-94.82,80.241-187.619,107.389-275.459c22.567,6.543,44.48,13.428,65.593,20.703
			c204.19,70.281,328.736,174.211,328.736,254.287C2233.107,1208.028,2098.592,1318.764,1880.192,1391.135z"/>
	</g>
	<line fill="none" stroke="#000000" stroke-width="0.3" x1="148.851" y1="87.737" x2="148.851" y2="123.737"/>
	<line fill="none" stroke="#000000" stroke-width="0.3" x1="94.851" y1="141.737" x2="130.851" y2="141.737"/>
	<line fill="none" stroke="#000000" stroke-width="0.3" x1="94.851" y1="2104.905" x2="130.851" y2="2104.905"/>
	<line fill="none" stroke="#000000" stroke-width="0.3" x1="148.851" y1="2158.905" x2="148.851" y2="2122.905"/>
	<line fill="none" stroke="#000000" stroke-width="0.3" x1="2355.361" y1="87.737" x2="2355.361" y2="123.737"/>
	<line fill="none" stroke="#000000" stroke-width="0.3" x1="2409.361" y1="141.737" x2="2373.361" y2="141.737"/>
	<line fill="none" stroke="#000000" stroke-width="0.3" x1="2409.361" y1="2104.905" x2="2373.361" y2="2104.905"/>
	<line fill="none" stroke="#000000" stroke-width="0.3" x1="2355.361" y1="2158.905" x2="2355.361" y2="2122.905"/>
</g>
</svg>
